<?xml version="1.0" encoding="iso-8859-1"?>
<!-- Generator: Adobe Illustrator 19.0.0, SVG Export Plug-In . SVG Version: 6.00 Build 0)  -->
<svg version="1.1" id="Layer_1" xmlns="http://www.w3.org/2000/svg" xmlns:xlink="http://www.w3.org/1999/xlink" x="0px" y="0px"
	 viewBox="0 0 496 496" style="enable-background:new 0 0 496 496;" xml:space="preserve">
<g>
	<g>
		<g>
			<path d="M368,168c17.648,0,32-14.352,32-32c0-6.096-1.8-11.744-4.776-16.592l53.064-59.696C452.952,62.36,458.264,64,464,64
				c17.648,0,32-14.352,32-32S481.648,0,464,0s-32,14.352-32,32c0,6.096,1.8,11.744,4.776,16.592l-53.064,59.696
				C379.048,105.64,373.736,104,368,104c-11.44,0-21.408,6.072-27.072,15.12l-29.568-6.568c0.376-2.808,0.64-5.648,0.64-8.552
				c0-35.288-28.712-64-64-64c-26.784,0-49.744,16.56-59.272,39.96l-21.208-4.712C165.2,59.864,152.024,48,136,48
				c-17.648,0-32,14.352-32,32c0,2.496,0.352,4.904,0.896,7.24l-49.264,27.368C49.776,108.144,41.4,104,32,104
				c-17.648,0-32,14.352-32,32s14.352,32,32,32s32-14.352,32-32c0-2.496-0.352-4.904-0.896-7.24l49.264-27.368
				C118.224,107.856,126.6,112,136,112c13.664,0,25.264-8.648,29.848-20.728l18.792,4.176c-0.376,2.808-0.64,5.648-0.64,8.552
				c0,35.288,28.712,64,64,64c26.784,0,49.744-16.56,59.272-39.96l28.88,6.416c-0.024,0.52-0.152,1.016-0.152,1.544
				C336,153.648,350.352,168,368,168z M464,16c8.824,0,16,7.184,16,16s-7.176,16-16,16c-8.824,0-16-7.184-16-16S455.176,16,464,16z
				 M368,120c8.824,0,16,7.176,16,16c0,8.824-7.176,16-16,16c-8.824,0-16-7.176-16-16C352,127.176,359.176,120,368,120z M32,152
				c-8.816,0-16-7.176-16-16c0-8.824,7.184-16,16-16s16,7.176,16,16C48,144.824,40.816,152,32,152z M150.536,86.6
				C148.008,92.128,142.464,96,136,96c-8.824,0-16-7.184-16-16s7.176-16,16-16c8.824,0,16,7.184,16,16L150.536,86.6z M248,152
				c-26.472,0-48-21.528-48-48c0-1.712,0.096-3.408,0.272-5.072l15.88,3.528c-0.024,0.52-0.152,1.016-0.152,1.544
				c0,17.648,14.352,32,32,32c11.44,0,21.408-6.072,27.072-15.12l16.272,3.616C283.632,140.728,267.128,152,248,152z M232,104
				c0-8.816,7.176-16,16-16c8.824,0,16,7.184,16,16s-7.176,16-16,16C239.176,120,232,112.816,232,104z M295.728,109.072
				l-15.88-3.528c0.024-0.52,0.152-1.016,0.152-1.544c0-17.648-14.352-32-32-32c-11.44,0-21.416,6.072-27.072,15.12l-16.264-3.616
				C212.368,67.272,228.872,56,248,56c26.472,0,48,21.528,48,48C296,105.712,295.904,107.408,295.728,109.072z"/>
			<path d="M136,224v96c0,17.648,14.352,32,32,32c5.856,0,11.272-1.696,16-4.448V496h128V347.552c4.728,2.752,10.144,4.448,16,4.448
				c17.648,0,32-14.352,32-32v-96c0-30.872-25.128-56-56-56h-56h-56C161.128,168,136,193.128,136,224z M240,480h-40v-16h40V480z
				 M296,480h-40v-16h40V480z M296,448h-40v-96h-16v96h-40V328h96V448z M304,184c22.056,0,40,17.944,40,40v96
				c0,8.824-7.176,16-16,16c-8.824,0-16-7.176-16-16v-96h-16v88h-96v-88h-16v96c0,8.824-7.176,16-16,16c-8.824,0-16-7.176-16-16v-96
				c0-22.056,17.944-40,40-40H304z"/>
			<path d="M440,176c-30.872,0-56,25.128-56,56c0,22.28,13.112,41.504,32,50.52V344c0,13.232,10.768,24,24,24s24-10.768,24-24
				v-61.48c18.888-9.008,32-28.24,32-50.52C496,201.128,470.872,176,440,176z M448,344c0,4.416-3.584,8-8,8c-4.416,0-8-3.584-8-8
				v-56.64c2.616,0.376,5.28,0.64,8,0.64c2.72,0,5.384-0.264,8-0.64V344z M440,272c-22.056,0-40-17.944-40-40
				c0-22.056,17.944-40,40-40c22.056,0,40,17.944,40,40C480,254.056,462.056,272,440,272z"/>
			<rect x="432" y="384" width="16" height="16"/>
			<rect x="432" y="416" width="16" height="16"/>
			<rect x="432" y="448" width="16" height="16"/>
			<rect x="432" y="480" width="16" height="16"/>
			<path d="M81.376,208c-8.184,0-15.872,3.184-21.656,8.968l-3.72,3.72l-3.72-3.72C46.504,211.184,38.808,208,30.624,208
				C13.744,208,0,221.744,0,238.624c0,8.176,3.184,15.872,8.968,21.656L56,307.312l47.032-47.032
				c5.784-5.776,8.968-13.472,8.968-21.656C112,221.744,98.256,208,81.376,208z M91.72,248.968L56,284.688l-35.72-35.72
				c-2.72-2.72-4.28-6.488-4.28-10.344C16,230.56,22.56,224,30.624,224c3.848,0,7.624,1.56,10.344,4.28L56,243.312l15.032-15.032
				c2.72-2.72,6.488-4.28,10.344-4.28C89.44,224,96,230.56,96,238.624C96,242.48,94.44,246.248,91.72,248.968z"/>
			<rect x="48" y="352" width="16" height="16"/>
			<rect x="48" y="320" width="16" height="16"/>
			<rect x="48" y="384" width="16" height="16"/>
			<rect x="48" y="416" width="16" height="16"/>
			<rect x="48" y="448" width="16" height="16"/>
			<rect x="48" y="480" width="16" height="16"/>
		</g>
	</g>
</g>
<g>
</g>
<g>
</g>
<g>
</g>
<g>
</g>
<g>
</g>
<g>
</g>
<g>
</g>
<g>
</g>
<g>
</g>
<g>
</g>
<g>
</g>
<g>
</g>
<g>
</g>
<g>
</g>
<g>
</g>
</svg>
